
Format : AVI
Format/Info : Audio Video Interleave
Format profile : OpenDML
File size : 1.11 GiB
Duration : 1h 23mn
Overall bit rate : 1 908 Kbps
Writing application : Lavf52.47.0

Video
ID : 0
Format : xvid
Codec ID : xvid
Duration : 1h 23mn
Bit rate : 1 575 Kbps
Width : 720 pixels
Height : 480 pixels
Display aspect ratio : 3:2
Frame rate : 25.000 fps
Standard : NTSC
Bits/(Pixel*Frame) : 0.182
Stream size : 935 MiB (83%)

Audio
ID : 1
Format : AC-3
Format/Info : Audio Coding 3
Mode extension : CM (complete main)
Codec ID : 2000
Duration : 1h 23mn
Bit rate mode : Constant
Bit rate : 320 Kbps
Channel(s) : 2 channels
Channel positions : Front: L R
Sampling rate : 44.1 KHz
Bit depth : 16 bits
Stream size : 190 MiB (17%)
Alignment : Aligned on interleaves
Interleave, duration : 35 ms (0.87 video frame)
 
http://www.imdb.com/title/tt1465522/


Users: 8.0/10 (1,885 votes) 10 reviews | Critics: 54 reviews

Storyline

Two lovable West Virginian hillbillies, are headed to their "fixer-upper" vacation cabin to drink some beer, do some fishin', and have a good time. But when they run into a group of preppy college kids who assume from their looks that they must be in-bred, chainsaw wielding killers, Tucker & Dale's vacation takes a bloody & hilarious turn for the worse. Written by Tucker

Director:
Eli Craig
Writers:
Morgan Jurgenson, Eli Craig
Stars:
Tyler Labine, Alan Tudyk and Katrina Bowden



Video Source and Audio Source Tucker.And.Dale.Vs.Evil.2010.WORKPRINT-NoGrp 'MadVillain' ( Thanks )


Not a great deal of work done just a quick convert with AC3 audio and a couple of filters .........Enjoy !


Greetz to Imagine ,Flawl3ss ,Santi ,Vision ,Kingdom,BDK,DiGiTALiNK,LEGION,Classified,iLLUSiON ,THC,WBZ,Rx,iLLUSiON and to all who share